<svg class="svg-icon" style="width: 1em; height: 1em;vertical-align: middle;fill: currentColor;overflow: hidden;" viewBox="0 0 1024 1024" version="1.1" xmlns="http://www.w3.org/2000/svg"><path d="M239 288.3c3.4-5 6.9-9.9 10.4-14.7 3.5-4.9 7.1-9.7 10.6-14.6 3.6-4.8 7.1-9.7 10.8-14.4l10.8-14.3 11-14.2 11-14.2 22.3-28.1c7.5-9.3 15-18.6 22.6-27.8l11.4-13.8 11.4-13.8c7.6-9.2 15.3-18.3 23-27.4 7.7-9.1 15.5-18.1 23.2-27.2 10.7-12.6 29.6-14.1 42.2-3.4l0.2 0.1 3.7 3.2 20.3 17.5L504 98.9c6.7 5.9 13.4 11.8 20 17.7 6.7 5.9 13.3 11.9 20 17.8 13.3 11.9 26.5 23.9 39.6 35.9l19.7 18.1c6.6 6 13.1 12.1 19.6 18.2l19.5 18.3 19.4 18.4 19.3 18.5c6.4 6.1 12.9 12.3 19.3 18.5l19.2 18.6 19.1 18.7 19 18.8 19 18.8c18.7 18.5 18.8 48.7 0.2 67.4l-0.2 0.2c-6.3 6.4-12.7 12.6-19 19l-19.1 18.9-19.2 18.8-19.3 18.7-19.3 18.7-19.4 18.6-19.5 18.5c-6.5 6.1-13 12.3-19.6 18.4L602.6 591l-19.8 18.2c-6.6 6.1-13.2 12.1-19.9 18.2l-19.9 18-20 18-20.1 17.9-20.3 17.7-20.4 17.7-3.7 3.2c-12.7 11-32 9.7-43.1-3.1l-0.1-0.1-23.7-27.7-11.8-13.9-11.7-14c-7.8-9.3-15.5-18.7-23.3-28.1-7.7-9.4-15.4-18.9-23-28.4-3.8-4.7-7.6-9.5-11.4-14.3L299.1 576c-3.8-4.8-7.5-9.6-11.2-14.5L276.8 547l-11-14.6c-3.7-4.9-7.3-9.8-11-14.7-3.6-4.9-7.3-9.9-10.8-14.9-3.6-5-7.1-10-10.6-15 5.1 3.5 10.1 7 15 10.6 5 3.6 9.9 7.2 14.9 10.8 4.9 3.6 9.9 7.3 14.7 11l14.6 11 14.5 11.2c4.8 3.7 9.7 7.4 14.5 11.2l14.3 11.3c4.8 3.8 9.6 7.5 14.3 11.4 9.5 7.6 18.9 15.3 28.4 23 9.4 7.7 18.8 15.4 28.1 23.3l14 11.7 13.9 11.8 27.7 23.7h-46.9l17.7-20.4 17.8-20.3 17.9-20.1 18-20 18.1-19.9c6-6.6 12.1-13.3 18.2-19.9l18.2-19.8 18.3-19.7c6.1-6.6 12.3-13.1 18.4-19.6l18.5-19.5 18.6-19.4 18.7-19.3 18.7-19.3 18.8-19.2 18.9-19.1c6.3-6.3 12.6-12.7 19-19v67.6l-18.8-19-18.8-19-18.7-19.1-18.6-19.2c-6.2-6.4-12.4-12.8-18.5-19.3L597.3 308l-18.4-19.4-18.3-19.5c-6.1-6.5-12.2-13-18.2-19.6l-18.1-19.7c-12-13.2-24-26.3-35.9-39.6-6-6.6-11.9-13.3-17.8-20-5.9-6.7-11.9-13.3-17.7-20L435 130.1l-17.5-20.3h46.1c-9.1 7.7-18.1 15.5-27.2 23.2-9.1 7.7-18.2 15.4-27.4 23l-13.8 11.4-13.8 11.4c-9.2 7.6-18.5 15.1-27.8 22.6l-28.1 22.3-14.2 11-14.2 11-14.3 10.8-14.4 10.8c-4.8 3.6-9.7 7.1-14.6 10.6s-9.8 7-14.8 10.4z"  /><path d="M576.1 408.1L396.5 304.4v63.8H192v80h204.5v63.6zM130.1 1012.5H88.7c1.3-30.3 1.9-63.5 1.9-99.8 0-35.6-0.6-66-1.9-91h41.5c-1.3 24.6-1.9 54.9-1.9 91-0.1 36.9 0.5 70.1 1.8 99.8zM344.5 1012.5h-36.2c0-4-13.4-25.1-40.3-63.4-28.1-40.3-44.1-67.9-48-82.8h-2.3c2.4 21.4 3.7 40.7 3.7 58 0 24.1 0.7 53.5 2.1 88.2h-36c1.5-30.3 2.2-63.5 2.2-99.8 0-35.6-0.7-66-2.2-91H231c0 5.2 12.1 25.8 36.2 62 25.7 38.4 40.4 64.4 44.2 78.1h2.2c-2.3-21.8-3.5-41.3-3.5-58.6 0-26.5-0.7-53.6-2.1-81.4h36.6c-1.4 24.2-2.1 54.5-2.1 91-0.1 36.7 0.6 69.9 2 99.7zM540.8 871.7c0 23.3-8.7 40.6-26 51.7-17.3 11.1-38.6 16.7-63.8 16.7-4.6 0-7.9-0.1-9.8-0.3 0 18.4 0.5 42.6 1.6 72.7h-41.2c1.3-28.2 1.9-61.5 1.9-99.8 0-35.2-0.6-65.5-1.9-91h25.5c3.6 0 10.5-0.1 20.8-0.4s19.1-0.4 26.7-0.4c18.6 0 34.2 4.2 47 12.6 12.8 8.4 19.2 21.1 19.2 38.2z m-37.8 8.1c0-20.9-13.9-31.3-41.6-31.3-6.9 0-14.3 0.7-22 2.2 1.1 18.5 1.6 39.4 1.6 62.7 2.4 0.2 5.3 0.3 8.5 0.3 35.7-0.1 53.5-11.4 53.5-33.9zM741.7 821.8c-0.9 32.8-1.3 65.6-1.3 98.4 0 64.8-26.6 97.3-79.7 97.3-26.3 0-46-7.2-59.3-21.5-13.3-14.4-19.9-40.1-19.9-77.3 0-32.8-0.4-65.1-1.3-96.8h41.5c-1.3 33-1.9 64.8-1.9 95.5 0 26.9 3.4 45.3 10.3 55.2 6.8 10 17.4 14.9 31.6 14.9 14.9 0 25.7-5 32.4-14.9 6.6-9.9 10-28.4 10-55.6 0-29.8-0.6-61.5-1.9-95.2h39.5zM929.1 821.8l-1 31.5c-19.5-1.5-37.9-2.2-55.2-2.2-0.2 18.5-0.3 39-0.3 61.7 0 35.2 0.5 68.4 1.6 99.8h-41c1.3-31.1 1.9-64.3 1.9-99.8 0-22.3-0.2-42.8-0.6-61.7-13.8 0-32.7 0.8-56.7 2.3l1.2-31.6h150.1z"  /></svg>