<svg width="7" height="12" viewBox="0 0 7 12" fill="none" xmlns="http://www.w3.org/2000/svg">
<path d="M2.29314 8.60422V8.53537C2.30056 7.80499 2.37478 7.2237 2.51577 6.79158C2.65678 6.35947 2.85715 6.00956 3.11689 5.74188C3.37663 5.47421 3.68832 5.22753 4.05197 5.00193C4.27087 4.86423 4.46754 4.70171 4.64195 4.51436C4.81635 4.32315 4.95364 4.10324 5.05381 3.85469C5.15769 3.60611 5.20965 3.33079 5.20965 3.02868C5.20965 2.65392 5.12433 2.32888 4.95364 2.05354C4.78295 1.7782 4.55473 1.56597 4.26902 1.41683C3.98331 1.26769 3.66605 1.19312 3.31726 1.19312C3.01299 1.19312 2.71986 1.25813 2.43785 1.38815C2.15585 1.51817 1.92023 1.72275 1.73099 2.00191C1.54175 2.28107 1.43229 2.64627 1.4026 3.09752H0C0.0296848 2.44742 0.19295 1.89101 0.489798 1.4283C0.790354 0.965584 1.18553 0.611854 1.67533 0.367114C2.16884 0.122371 2.71615 0 3.31726 0C3.97032 0 4.53806 0.133844 5.02041 0.401532C5.5065 0.669218 5.88128 1.03633 6.14473 1.50287C6.41188 1.96941 6.54545 2.50096 6.54545 3.09752C6.54545 3.51817 6.4824 3.89868 6.35624 4.239C6.23376 4.57935 6.05569 4.88336 5.8219 5.15107C5.59186 5.41875 5.31354 5.65582 4.98704 5.86233C4.6605 6.07267 4.39888 6.29445 4.20225 6.52773C4.00558 6.75716 3.86272 7.03061 3.77368 7.34801C3.68461 7.66541 3.63636 8.06119 3.62893 8.53537V8.60422H2.29314ZM3.00557 12C2.73099 12 2.49537 11.8987 2.29871 11.696C2.10204 11.4933 2.00372 11.2505 2.00372 10.9675C2.00372 10.6845 2.10204 10.4417 2.29871 10.239C2.49537 10.0363 2.73099 9.93499 3.00557 9.93499C3.28015 9.93499 3.51577 10.0363 3.71244 10.239C3.90911 10.4417 4.00743 10.6845 4.00743 10.9675C4.00743 11.1549 3.96104 11.3269 3.86829 11.4837C3.77925 11.6405 3.65863 11.7668 3.50649 11.8623C3.35808 11.9541 3.1911 12 3.00557 12Z" fill="white"/>
</svg>
